<?xml version="1.0" encoding="utf-8"?>
<!-- Generator: Adobe Illustrator 24.0.1, SVG Export Plug-In . SVG Version: 6.00 Build 0)  -->
<svg version="1.1" id="圖層_1" xmlns="http://www.w3.org/2000/svg" xmlns:xlink="http://www.w3.org/1999/xlink" x="0px" y="0px"
	 viewBox="0 0 32 28" style="enable-background:new 0 0 32 28;" xml:space="preserve">
<style type="text/css">
	.st0{fill:#FFAEAE;}
</style>
<path class="st0" d="M1.1,5.1h29.7C31.5,5.1,32,4.6,32,4V1.1C32,0.5,31.5,0,30.9,0l0,0H1.1C0.5,0,0,0.5,0,1.1l0,0V4
	C0,4.6,0.5,5.1,1.1,5.1z M1.1,16.6h29.7c0.6,0,1.1-0.5,1.1-1.1v-2.9c0-0.6-0.5-1.1-1.1-1.1H1.1C0.5,11.5,0,12,0,12.6v2.9
	C0,16.1,0.5,16.6,1.1,16.6L1.1,16.6z M1.1,28h29.7c0.6,0,1.1-0.5,1.1-1.1V24c0-0.6-0.5-1.1-1.1-1.1H1.1C0.5,22.9,0,23.4,0,24v2.9
	C0,27.5,0.5,28,1.1,28z"/>
</svg>
